<?xml version="1.0" standalone="no"?>
<!DOCTYPE svg PUBLIC "-//W3C//DTD SVG 20010904//EN"
 "http://www.w3.org/TR/2001/REC-SVG-20010904/DTD/svg10.dtd">
<svg version="1.0" xmlns="http://www.w3.org/2000/svg"
 width="900.000000pt" height="900.000000pt" viewBox="0 0 900.000000 900.000000"
 preserveAspectRatio="xMidYMid meet">
<metadata>
Created by potrace 1.10, written by Peter Selinger 2001-2011
</metadata>
<g transform="translate(0.000000,900.000000) scale(0.100000,-0.100000)"
fill="#000000" stroke="none">
<path d="M4494 5192 c-35 -19 -96 -97 -120 -152 -3 -8 -12 -28 -19 -45 -19
-44 -45 -138 -45 -164 0 -13 8 -39 17 -58 l17 -36 -40 -36 c-144 -130 -279
-201 -387 -201 -79 0 -134 60 -69 76 64 16 132 79 132 121 -1 46 -46 70 -122
65 -40 -3 -115 -82 -123 -131 -8 -46 -29 -63 -95 -79 -116 -28 -133 -34 -150
-55 -34 -41 -14 -44 105 -17 28 6 62 17 77 25 40 22 75 19 94 -9 27 -42 86
-66 164 -66 38 0 71 4 75 9 3 5 20 13 37 16 71 16 192 92 271 170 56 54 59 56
80 41 72 -52 175 -69 256 -42 27 9 60 16 73 16 14 0 33 7 44 15 21 16 94 21
94 6 0 -5 12 -14 28 -20 15 -6 34 -15 42 -20 8 -5 22 -12 30 -16 78 -32 100
-68 100 -170 1 -61 5 -85 18 -100 25 -29 68 -55 93 -55 25 0 112 27 151 46 14
8 34 14 45 14 10 0 27 7 37 15 11 8 30 15 42 15 13 0 25 4 29 9 3 5 20 13 38
16 37 8 145 60 168 81 10 9 38 14 82 14 36 0 81 6 99 14 57 23 102 38 143 46
22 4 56 13 75 20 100 36 117 43 143 56 16 8 36 14 45 14 9 0 26 7 36 15 11 8
28 15 38 15 9 0 32 6 50 14 46 19 123 38 193 47 108 13 200 44 270 89 17 11
36 23 43 26 7 4 22 24 32 45 20 38 20 38 -1 73 -51 87 -193 57 -164 -35 4 -13
16 -19 36 -19 16 0 29 5 29 10 0 6 7 10 15 10 8 0 15 -7 15 -15 0 -17 -71 -65
-97 -65 -10 0 -50 -7 -88 -15 -39 -8 -103 -15 -142 -15 -41 0 -91 -7 -115 -16
-109 -40 -169 -65 -221 -90 -16 -8 -36 -14 -45 -14 -9 0 -26 -7 -36 -15 -11
-8 -29 -15 -41 -15 -12 0 -30 -7 -41 -15 -10 -8 -31 -15 -45 -15 -14 0 -34 -7
-45 -15 -10 -8 -31 -15 -45 -15 -14 0 -34 -7 -45 -15 -10 -8 -36 -15 -56 -15
-31 0 -40 5 -55 30 -10 17 -26 30 -37 30 -23 0 -45 -27 -46 -56 0 -35 -87 -94
-138 -94 -12 0 -23 -4 -26 -9 -3 -5 -18 -12 -33 -15 -16 -4 -43 -13 -60 -21
-94 -43 -160 -66 -200 -72 -42 -7 -55 17 -42 75 11 50 -4 124 -33 162 -25 31
-108 89 -129 90 -9 0 -22 6 -29 14 -6 8 -21 16 -33 18 -15 2 -23 11 -25 28 -9
60 -75 82 -106 35 -9 -13 -16 -31 -16 -39 0 -24 -122 -56 -216 -56 -125 0
-181 44 -123 96 25 22 86 114 109 164 64 136 66 164 15 215 -40 40 -39 39 -81
17z m56 -93 c0 -21 -17 -65 -50 -129 -48 -93 -79 -145 -89 -148 -16 -5 -14 71
4 104 8 16 15 36 15 45 0 9 7 22 15 29 8 7 15 20 15 30 0 10 7 23 15 30 8 7
15 18 15 24 0 18 22 36 42 36 12 0 18 -7 18 -21z m-630 -412 c0 -16 -21 -35
-67 -60 -63 -34 -73 -12 -17 40 37 33 84 44 84 20z"/>
<path d="M5601 5047 c-18 -18 -13 -42 13 -67 32 -29 56 -20 56 19 0 23 -7 33
-29 44 -21 11 -32 12 -40 4z"/>
</g>
</svg>
